<?xml version="1.0" encoding="UTF-8"?>
<svg version="1.1" viewBox="0 0 24 24" xmlns="http://www.w3.org/2000/svg" xmlns:xlink="http://www.w3.org/1999/xlink">
    <!--Generated by IJSVG (https://github.com/iconjar/IJSVG)-->
    <g fill="#FFF">
        <path opacity="0" d="M0,0h24v24h-24Z"></path>
        <path d="M16.24,22h-4.37114e-08c-0.552285,-2.41411e-08 -1,-0.447715 -1,-1c0,0 0,-3.55271e-15 0,-3.55271e-15v-2.6l5.01737e-08,-4.82928e-07c0.0628353,-0.604798 -0.133362,-1.20792 -0.54,-1.66l-7.08659e-08,-7.68581e-08c-0.374375,-0.406031 -0.348713,-1.03868 0.0573185,-1.41305c0.153002,-0.141073 0.346205,-0.230896 0.552682,-0.256948c2.44,-0.29 4.69,-1.07 4.69,-5.3l-9.05226e-09,9.28054e-06c0.000771409,-0.789923 -0.232359,-1.56239 -0.669995,-2.22l-2.3723e-09,-3.55613e-09c-0.403845,-0.605372 -0.551278,-1.34613 -0.41,-2.06l1.67288e-07,-8.64297e-07c0.0901337,-0.465678 0.0901336,-0.944321 -1.25605e-07,-1.41l2.15936e-07,-7.30105e-08c-0.748795,0.253176 -1.45383,0.620874 -2.09,1.09l4.41469e-08,-3.13498e-08c-0.243544,0.172946 -0.55165,0.227965 -0.84,0.15l3.36961e-07,9.52145e-08c-1.80467,-0.509942 -3.71533,-0.509943 -5.52,-1.90429e-07l1.16926e-08,-3.1615e-09c-0.28835,0.0779653 -0.596456,0.0229464 -0.84,-0.15l4.75567e-07,3.52599e-07c-0.640063,-0.474562 -1.35257,-0.842634 -2.11,-1.09l2.18793e-08,-1.07028e-07c-0.095097,0.46519 -0.095097,0.94481 -4.37586e-08,1.41l2.09522e-08,1.15538e-07c0.131085,0.722853 -0.0230377,1.46838 -0.43,2.08l1.17511e-07,-1.7859e-07c-0.435738,0.662223 -0.668603,1.43728 -0.67,2.23c0,3.89 1.88,4.93 4.7,5.29l-2.35895e-08,-2.92714e-09c0.376374,0.0467031 0.693938,0.302303 0.82,0.66l4.7506e-09,1.39035e-08c0.11844,0.346636 0.0378727,0.730289 -0.21,1l3.54051e-08,-3.78455e-08c-0.393222,0.420327 -0.592658,0.985998 -0.55,1.56v2.68999v0c0,0.552285 -0.447715,1 -1,1c-0.552285,0 -1,-0.447715 -1,-1v-0.57l2.81481e-07,-3.23715e-08c-1.99578,0.229523 -3.974,-0.555007 -5.27,-2.09l-1.27047e-08,-1.40819e-08c-0.327996,-0.363551 -0.72152,-0.662086 -1.16,-0.88l-4.73175e-08,-1.21952e-08c-0.535716,-0.138071 -0.858071,-0.684284 -0.72,-1.22c0.138071,-0.535716 0.684284,-0.858071 1.22,-0.72c8.61877e-09,2.22133e-09 2.37016e-08,6.10867e-09 3.23204e-08,8.33001e-09l-2.2211e-07,-8.09141e-08c0.76925,0.280235 1.4566,0.747633 2,1.36c1,1 2,1.88 3.9,1.52l-1.63393e-07,-2.62608e-06c-0.0334057,-0.536904 0.0449107,-1.0749 0.230001,-1.58c-2.06,-0.52 -5,-2 -5,-7l-1.95667e-07,-8.82127e-05c-0.00261837,-1.18437 0.345344,-2.34302 1.00005,-3.32998l1.16788e-08,-1.74981e-08c0.121603,-0.182195 0.168174,-0.404303 0.13,-0.62l-2.0345e-07,-1.08679e-06c-0.202072,-1.07943 -0.0874618,-2.19426 0.33,-3.21l-2.65329e-08,6.33521e-08c0.114838,-0.274196 0.345716,-0.483086 0.63,-0.57c0.34,-0.1 1.56,-0.3 3.87,1.2l-3.0286e-07,7.2881e-08c1.86997,-0.449996 3.82002,-0.449996 5.69,-8.09631e-07c2.31,-1.5 3.53,-1.31 3.86,-1.2l-4.71328e-08,-1.44099e-08c0.284284,0.0869141 0.515162,0.295804 0.63,0.57l2.52513e-07,6.1517e-07c0.41829,1.01903 0.532895,2.1373 0.33,3.22l-1.96204e-08,9.35434e-08c-0.0413332,0.197063 -0.00169338,0.402469 0.11,0.57l-2.81236e-08,-4.23967e-08c0.656584,0.989809 1.00461,2.15223 1,3.34c0,5.07 -2.92,6.54 -5,7l4.58349e-08,1.34229e-07c0.183231,0.536598 0.258012,1.10426 0.22,1.67v2.54008l1.34228e-08,7.46624e-06c0.000950274,0.529677 -0.411283,0.968217 -0.940007,0.999993Z"></path>
    </g>
</svg>