<?xml version="1.0" encoding="UTF-8"?>
<svg version="1.1" viewBox="0 0 24 24" xmlns="http://www.w3.org/2000/svg" xmlns:xlink="http://www.w3.org/1999/xlink">
    <!--Generated by IJSVG (https://github.com/iconjar/IJSVG)-->
    <g fill="#FFF">
        <path opacity="0" d="M0,0h24v24h-24Z"></path>
        <path d="M13.29,9.29l-4,4l2.29995e-08,-2.28117e-08c-0.392122,0.38892 -0.394718,1.02208 -0.00579837,1.4142c0.00192484,0.00194069 0.00385763,0.00387348 0.00579832,0.00579832l-3.12092e-08,-3.14662e-08c0.38892,0.392122 1.02208,0.394718 1.4142,0.00579839c0.00194069,-0.00192484 0.00387348,-0.00385763 0.00579832,-0.00579832l4,-4l6.9121e-08,-6.91211e-08c0.392122,-0.392122 0.392122,-1.02788 -1.38242e-07,-1.42c-0.392122,-0.392122 -1.02788,-0.392122 -1.42,1.38242e-07Z"></path>
        <path d="M12.28,17.4l-1.28,1.27l1.30747e-07,-1.34725e-07c-1.48765,1.53291 -3.88891,1.70505 -5.58,0.4l-7.52686e-08,-6.20234e-08c-1.70488,-1.40487 -1.94809,-3.92583 -0.543221,-5.63071c0.0859586,-0.104315 0.177149,-0.204206 0.273222,-0.299289l1.42,-1.43l4.18882e-08,-4.15461e-08c0.392122,-0.38892 0.394718,-1.02208 0.00579824,-1.4142c-0.00192484,-0.00194069 -0.00385763,-0.00387348 -0.00579832,-0.00579832l-3.03541e-08,-3.0604e-08c-0.38892,-0.392122 -1.02208,-0.394718 -1.4142,-0.00579826c-0.00194069,0.00192484 -0.00387348,0.00385763 -0.00579832,0.00579832l-1.27,1.28l2.80189e-07,-2.71328e-07c-2.21267,2.14269 -2.49902,5.59176 -0.670001,8.07l-4.7426e-08,-6.15258e-08c2.04327,2.65074 5.84852,3.14319 8.49926,1.09992c0.200503,-0.154554 0.391123,-0.321519 0.570742,-0.499916l1.42,-1.42l6.91211e-08,-6.91211e-08c0.392122,-0.392122 0.392122,-1.02788 -1.38242e-07,-1.42c-0.392122,-0.392122 -1.02788,-0.392122 -1.42,1.38242e-07Z"></path>
        <path d="M19.66,3.22l-1.25783e-07,-9.3155e-08c-2.49587,-1.84844 -5.97587,-1.55736 -8.13,0.68l-1.08,1.1l2.41352e-08,-1.75455e-08c-0.486922,0.353976 -0.594697,1.03566 -0.240721,1.52258c0.0220539,0.0303369 0.0456589,0.0595153 0.0707208,0.0874188l-3.12092e-08,-3.14662e-08c0.38892,0.392122 1.02208,0.394718 1.4142,0.00579839c0.00194069,-0.00192484 0.00387348,-0.00385763 0.00579832,-0.00579832l1.3,-1.31l1.1675e-07,-1.21502e-07c1.48013,-1.54037 3.88496,-1.71307 5.57,-0.4l1.14861e-07,9.39604e-08c1.7099,1.39876 1.96214,3.91883 0.563378,5.62873c-0.091892,0.112333 -0.18983,0.219581 -0.293378,0.32127l-1.42,1.43l2.29995e-08,-2.28117e-08c-0.392122,0.38892 -0.394718,1.02208 -0.00579837,1.4142c0.00192484,0.00194069 0.00385763,0.00387348 0.00579832,0.00579832l-3.12092e-08,-3.14662e-08c0.38892,0.392122 1.02208,0.394718 1.4142,0.00579839c0.00194069,-0.00192484 0.00387348,-0.00385763 0.00579832,-0.00579832l1.42,-1.42l8.75431e-08,-8.83753e-08c2.35536,-2.37775 2.33721,-6.21468 -0.0405404,-8.57004c-0.17628,-0.17462 -0.363118,-0.338249 -0.55946,-0.489962Z"></path>
    </g>
</svg>